# xmcd
#
# Track frame offsets:
#	150
#	15086
#	33300
#	55608
#	87933
#	121922
#
# Disc length: 2082 seconds
#
# Revision: 6
# Processed by: cddbd v1.5.2PL0 Copyright (c) Steve Scherf et al.
# Submitted via: EasyCDDAExtractor 10.2.0.1
#
DISCID=36082006
DTITLE=Warp Brothers vs. Aquagen - Phatt Bass CDM
DYEAR=2000
DGENRE=Hard Trance
TTITLE0=Phatt Bass (Aquagen Short Mix)
TTITLE1=Phatt Bass (Warp Brothers Single Cut)
TTITLE2=Phatt Bass (Aquagen Club Mix)
TTITLE3=Phatt Bass (Warp Brothers Bass Mix)
TTITLE4=Phatt Bass (Warp Brothers Phatt Mix)
TTITLE5=Phatt Bass (Aquagen More Bass Mix)
EXTD=rlokker@worldonline.nl YEAR: 2000
EXTT0=
EXTT1=
EXTT2=
EXTT3=
EXTT4=
EXTT5=
PLAYORDER=
